
        <svg xmlns="http://www.w3.org/2000/svg" xmlns:xlink="http://www.w3.org/1999/xlink" version="1.1" width="3150.662467920864" 
        height="524.4260497884469" viewBox="0 0 3150.662467920864 524.4260497884469">
			
			<g transform="scale(7.533123396043205) translate(10, 10)">
				<defs id="SvgjsDefs12512"><linearGradient id="SvgjsLinearGradient12519"><stop id="SvgjsStop12520" stop-color="#945f50" offset="0"></stop><stop id="SvgjsStop12521" stop-color="#fcc5b3" offset="0.5"></stop><stop id="SvgjsStop12522" stop-color="#945f50" offset="1"></stop></linearGradient><linearGradient id="SvgjsLinearGradient12523"><stop id="SvgjsStop12524" stop-color="#945f50" offset="0"></stop><stop id="SvgjsStop12525" stop-color="#fcc5b3" offset="0.5"></stop><stop id="SvgjsStop12526" stop-color="#945f50" offset="1"></stop></linearGradient><linearGradient id="SvgjsLinearGradient12527"><stop id="SvgjsStop12528" stop-color="#945f50" offset="0"></stop><stop id="SvgjsStop12529" stop-color="#fcc5b3" offset="0.5"></stop><stop id="SvgjsStop12530" stop-color="#945f50" offset="1"></stop></linearGradient></defs><g id="SvgjsG12513" featureKey="nameLeftFeature-0" transform="matrix(2.362667497596922,0,0,2.362667497596922,-1.8901333221129444,-5.176004985581532)" fill="url(#SvgjsLinearGradient12519)"><path d="M0.8 20 l0 -14 l2.2 0 l0 12 l3.62 0 l0 2 l-5.82 0 z M14.3535 6 l2.24 14 l-2.22 0 l-0.38 -2.54 l-2.7 0 l-0.38 2.54 l-2.02 0 l2.24 -14 l3.22 0 z M12.6135 8.48 l-1.04 7.08 l2.12 0 l-1.04 -7.08 l-0.04 0 z M31.340500000000002 20 l-2.24 0 c-0.12 -0.36 -0.2 -0.58 -0.2 -1.72 l0 -2.2 c0 -1.3 -0.44 -1.78 -1.44 -1.78 l-0.76 0 l0 5.7 l-2.2 0 l0 -14 l3.32 0 c2.28 0 3.26 1.06 3.26 3.22 l0 1.1 c0 1.44 -0.46 2.36 -1.44 2.82 l0 0.04 c1.1 0.46 1.46 1.5 1.46 2.96 l0 2.16 c0 0.68 0.02 1.18 0.24 1.7 z M27.7605 8 l-1.06 0 l0 4.3 l0.86 0 c0.82 0 1.32 -0.36 1.32 -1.48 l0 -1.38 c0 -1 -0.34 -1.44 -1.12 -1.44 z M36.634 8 l0 3.9 l3.02 0 l0 2 l-3.02 0 l0 4.1 l3.8 0 l0 2 l-6 0 l0 -14 l6 0 l0 2 l-3.8 0 z M45.3275 6 l1.66 11.42 l0.04 0 l1.66 -11.42 l2.02 0 l-2.16 14 l-3.28 0 l-2.16 -14 l2.22 0 z M55.821000000000005 8 l0 3.9 l3.02 0 l0 2 l-3.02 0 l0 4.1 l3.8 0 l0 2 l-6 0 l0 -14 l6 0 l0 2 l-3.8 0 z M69.7145 20 l-2.24 0 c-0.12 -0.36 -0.2 -0.58 -0.2 -1.72 l0 -2.2 c0 -1.3 -0.44 -1.78 -1.44 -1.78 l-0.76 0 l0 5.7 l-2.2 0 l0 -14 l3.32 0 c2.28 0 3.26 1.06 3.26 3.22 l0 1.1 c0 1.44 -0.46 2.36 -1.44 2.82 l0 0.04 c1.1 0.46 1.46 1.5 1.46 2.96 l0 2.16 c0 0.68 0.02 1.18 0.24 1.7 z M66.1345 8 l-1.06 0 l0 4.3 l0.86 0 c0.82 0 1.32 -0.36 1.32 -1.48 l0 -1.38 c0 -1 -0.34 -1.44 -1.12 -1.44 z M72.808 20 l0 -14 l2.2 0 l0 14 l-2.2 0 z M80.70150000000001 8 l0 3.9 l3.02 0 l0 2 l-3.02 0 l0 4.1 l3.8 0 l0 2 l-6 0 l0 -14 l6 0 l0 2 l-3.8 0 z"></path></g><g id="SvgjsG12514" featureKey="inlineSymbolFeature-0" transform="matrix(0.4961626728730704,0,0,0.4961626728730704,218,-0.0002492167260826447)" fill="url(#SvgjsLinearGradient12523)"><path xmlns="http://www.w3.org/2000/svg" d="M43.463,100c-0.207,0-0.414-0.054-0.598-0.161l-42.266-24.4C0.229,75.226,0,74.83,0,74.403V25.599  c0-0.428,0.228-0.822,0.598-1.035L42.865,0.163c0.568-0.334,1.303-0.136,1.634,0.437c0.331,0.572,0.135,1.304-0.438,1.633  L2.394,26.291v47.42l41.069,23.712l41.069-23.712V25.599c0-0.661,0.535-1.196,1.196-1.196s1.196,0.535,1.196,1.196v48.805  c0,0.427-0.229,0.822-0.598,1.035l-42.266,24.4C43.876,99.946,43.67,100,43.463,100z"></path><path xmlns="http://www.w3.org/2000/svg" d="M16.785,34.626c-0.18,0-0.363-0.04-0.536-0.126L0.66,26.669c-0.59-0.297-0.829-1.017-0.532-1.608  c0.297-0.589,1.012-0.832,1.606-0.533l15.589,7.831c0.59,0.297,0.829,1.017,0.532,1.608C17.645,34.385,17.223,34.626,16.785,34.626z  "></path><path xmlns="http://www.w3.org/2000/svg" d="M43.463,100c-0.661,0-1.196-0.535-1.196-1.196V81.364c0-0.661,0.535-1.196,1.196-1.196s1.196,0.535,1.196,1.196v17.439  C44.659,99.465,44.124,100,43.463,100z"></path><path xmlns="http://www.w3.org/2000/svg" d="M43.462,81.577c-0.192,0-0.386-0.047-0.566-0.143L16.22,67.077c-0.388-0.208-0.629-0.614-0.629-1.054l-0.001-32.594  c0-0.661,0.535-1.196,1.197-1.196c0.661,0,1.196,0.535,1.196,1.196l0.001,31.878L44.03,79.326c0.582,0.313,0.8,1.04,0.487,1.622  C44.301,81.348,43.888,81.577,43.462,81.577z"></path><path xmlns="http://www.w3.org/2000/svg" d="M16.788,34.626c-0.41,0-0.81-0.21-1.033-0.591c-0.334-0.568-0.144-1.302,0.425-1.636l26.676-15.675  c0.569-0.336,1.304-0.147,1.638,0.425c0.335,0.568,0.145,1.301-0.425,1.636L17.394,34.46C17.203,34.572,16.994,34.626,16.788,34.626  z"></path><path xmlns="http://www.w3.org/2000/svg" d="M16.99,67.203c-0.41,0-0.81-0.21-1.033-0.591c-0.334-0.568-0.144-1.302,0.425-1.636L43.06,49.301  c0.569-0.336,1.304-0.147,1.639,0.425c0.334,0.568,0.144,1.301-0.426,1.636L17.596,67.037C17.405,67.149,17.196,67.203,16.99,67.203  z"></path><path xmlns="http://www.w3.org/2000/svg" d="M43.463,51.701c-0.661,0-1.196-0.535-1.196-1.197v-32.75c0-0.661,0.535-1.196,1.196-1.196s1.196,0.535,1.196,1.196v32.75  C44.659,51.166,44.124,51.701,43.463,51.701z"></path><path xmlns="http://www.w3.org/2000/svg" d="M43.463,100c-0.207,0-0.414-0.054-0.598-0.161l-42.266-24.4C0.229,75.226,0,74.83,0,74.403V25.599  c0-0.661,0.535-1.196,1.197-1.196c0.661,0,1.196,0.535,1.196,1.196v48.112l41.069,23.712l41.069-23.712v-47.42L42.865,2.233  c-0.573-0.33-0.769-1.061-0.438-1.633c0.329-0.573,1.062-0.771,1.634-0.437l42.266,24.401c0.369,0.213,0.598,0.607,0.598,1.035  v48.805c0,0.427-0.229,0.822-0.598,1.035l-42.266,24.4C43.876,99.946,43.67,100,43.463,100z"></path><path xmlns="http://www.w3.org/2000/svg" d="M70.143,34.626c-0.438,0-0.86-0.241-1.07-0.659c-0.295-0.591-0.057-1.311,0.532-1.608l15.587-7.831  c0.596-0.297,1.309-0.056,1.607,0.533c0.295,0.591,0.057,1.311-0.532,1.608L70.68,34.5C70.507,34.586,70.324,34.626,70.143,34.626z"></path><path xmlns="http://www.w3.org/2000/svg" d="M43.463,100c-0.661,0-1.196-0.535-1.196-1.196V80.381c0-0.662,0.535-1.197,1.196-1.197s1.196,0.535,1.196,1.197v18.423  C44.659,99.465,44.124,100,43.463,100z"></path><path xmlns="http://www.w3.org/2000/svg" d="M43.464,81.577c-0.426,0-0.839-0.229-1.055-0.629c-0.313-0.582-0.095-1.309,0.487-1.622l26.045-14.019l0.004-31.878  c0-0.661,0.538-1.196,1.197-1.196l0,0c0.661,0,1.196,0.535,1.196,1.196l-0.005,32.594c0,0.439-0.24,0.846-0.629,1.054L44.03,81.435  C43.85,81.53,43.656,81.577,43.464,81.577z"></path><path xmlns="http://www.w3.org/2000/svg" d="M70.138,34.626c-0.206,0-0.416-0.054-0.605-0.166L42.856,18.785c-0.569-0.334-0.759-1.068-0.425-1.636  c0.336-0.573,1.068-0.762,1.638-0.425l26.676,15.675c0.57,0.334,0.76,1.068,0.425,1.636C70.946,34.416,70.549,34.626,70.138,34.626z  "></path><path xmlns="http://www.w3.org/2000/svg" d="M69.937,67.203c-0.206,0-0.414-0.054-0.603-0.166L42.657,51.362c-0.569-0.335-0.759-1.068-0.425-1.636  c0.336-0.572,1.068-0.762,1.638-0.425l26.674,15.676c0.57,0.334,0.762,1.067,0.426,1.636C70.747,66.993,70.348,67.203,69.937,67.203  z"></path><path xmlns="http://www.w3.org/2000/svg" d="M43.463,51.701c-0.661,0-1.196-0.535-1.196-1.197v-32.75c0-0.661,0.535-1.196,1.196-1.196s1.196,0.535,1.196,1.196v32.75  C44.659,51.166,44.124,51.701,43.463,51.701z"></path></g><g id="SvgjsG12515" featureKey="nameRightFeature-0" transform="matrix(2.306648550544443,0,0,2.306648550544443,268.42069260476086,-4.470824587458964)" fill="url(#SvgjsLinearGradient12527)"><path d="M5.5135000000000005 9.36 c0 -2.24 1.1 -3.52 3.24 -3.52 s3.24 1.28 3.24 3.52 l0 0.44 l-2.08 0 l0 -0.58 c0 -1 -0.4 -1.38 -1.1 -1.38 s-1.1 0.38 -1.1 1.38 c0 1.02 0.44 1.78 1.88 3.04 c1.84 1.62 2.42 2.78 2.42 4.38 c0 2.24 -1.12 3.52 -3.28 3.52 s-3.28 -1.28 -3.28 -3.52 l0 -0.86 l2.08 0 l0 1 c0 1 0.44 1.36 1.14 1.36 s1.14 -0.36 1.14 -1.36 c0 -1.02 -0.44 -1.78 -1.88 -3.04 c-1.84 -1.62 -2.42 -2.78 -2.42 -4.38 z M14.527000000000001 8 l0 -2 l6.8 0 l0 2 l-2.3 0 l0 12 l-2.2 0 l0 -12 l-2.3 0 z M24.0805 6 l2.2 0 l0 10.8 c0 1 0.44 1.36 1.14 1.36 s1.14 -0.36 1.14 -1.36 l0 -10.8 l2.08 0 l0 10.66 c0 2.24 -1.12 3.52 -3.28 3.52 s-3.28 -1.28 -3.28 -3.52 l0 -10.66 z M34.034 20 l0 -14 l3.48 0 c2.2 0 3.28 1.22 3.28 3.46 l0 7.08 c0 2.24 -1.08 3.46 -3.28 3.46 l-3.48 0 z M37.474000000000004 8 l-1.24 0 l0 10 l1.24 0 c0.7 0 1.12 -0.36 1.12 -1.36 l0 -7.28 c0 -1 -0.42 -1.36 -1.12 -1.36 z M44.0875 20 l0 -14 l2.2 0 l0 14 l-2.2 0 z M51.801 9.22 l0 7.56 c0 1 0.44 1.38 1.14 1.38 s1.14 -0.38 1.14 -1.38 l0 -7.56 c0 -1 -0.44 -1.38 -1.14 -1.38 s-1.14 0.38 -1.14 1.38 z M49.601 16.64 l0 -7.28 c0 -2.24 1.18 -3.52 3.34 -3.52 s3.34 1.28 3.34 3.52 l0 7.28 c0 2.24 -1.18 3.52 -3.34 3.52 s-3.34 -1.28 -3.34 -3.52 z"></path></g>
			</g>
		</svg>
	