
        <svg xmlns="http://www.w3.org/2000/svg" xmlns:xlink="http://www.w3.org/1999/xlink" version="1.1" width="3147.7060440475216" 
        height="582.9184486198208" viewBox="0 0 3147.7060440475216 582.9184486198208">
			
			<g transform="scale(7.385302202376089) translate(10, 10)">
				<defs id="SvgjsDefs4514"><linearGradient id="SvgjsLinearGradient4521"><stop id="SvgjsStop4522" stop-color="#834f2a" offset="0"></stop><stop id="SvgjsStop4523" stop-color="#dba173" offset="0.5"></stop><stop id="SvgjsStop4524" stop-color=" #834F2A" offset="1"></stop></linearGradient><linearGradient id="SvgjsLinearGradient4525"><stop id="SvgjsStop4526" stop-color="#834f2a" offset="0"></stop><stop id="SvgjsStop4527" stop-color="#dba173" offset="0.5"></stop><stop id="SvgjsStop4528" stop-color=" #834F2A" offset="1"></stop></linearGradient><linearGradient id="SvgjsLinearGradient4529"><stop id="SvgjsStop4530" stop-color="#834f2a" offset="0"></stop><stop id="SvgjsStop4531" stop-color="#dba173" offset="0.5"></stop><stop id="SvgjsStop4532" stop-color=" #834F2A" offset="1"></stop></linearGradient></defs><g id="SvgjsG4515" featureKey="nameLeftFeature-0" transform="matrix(2.728218978876989,0,0,2.728218978876989,0,-5.38715597752587)" fill="url(#SvgjsLinearGradient4521)"><path d="M1.88 18.12 l2.76 0 l0 1.88 l-4.64 0 l0 -14.36 l1.88 0 l0 12.48 z M12.4145 20 l-0.72 -4.94 l-2.02 0 l-0.66 4.94 l-1.92 0 l2.16 -14.3 l2.58 0 l2.5 14.3 l-1.92 0 z M9.9345 13.16 l1.48 0 l-0.76 -5.2 z M28.3635 20.04 l-2.04 0 l-1.1 -3.02 l-0.44 0 l0 3.02 l-1.9 0 l0 -14.32 l2.98 0 c1.32 0 2.38 1.06 2.38 2.38 l0 6.54 c0 0.86 -0.44 1.6 -1.12 2.02 z M24.783499999999997 7.619999999999999 l0 7.5 l1.08 0 c0.26 0 0.48 -0.22 0.48 -0.48 l0 -6.54 c0 -0.26 -0.22 -0.48 -0.48 -0.48 l-1.08 0 z M35.798 12.46 l-2.76 0 l0 5.64 l2.78 0 l0 1.9 l-4.68 0 l0 -14.28 l4.68 0 l0 1.9 l-2.78 0 l0 2.94 l2.76 0 l0 1.9 z M42.5725 20 l-1.98 0 l-2 -14.28 l1.92 0 l1.04 7.36 l0.96 -7.36 l1.92 0 z M51.727000000000004 12.46 l-2.76 0 l0 5.64 l2.78 0 l0 1.9 l-4.68 0 l0 -14.28 l4.68 0 l0 1.9 l-2.78 0 l0 2.94 l2.76 0 l0 1.9 z M60.00150000000001 20.04 l-2.04 0 l-1.1 -3.02 l-0.44 0 l0 3.02 l-1.9 0 l0 -14.32 l2.98 0 c1.32 0 2.38 1.06 2.38 2.38 l0 6.54 c0 0.86 -0.44 1.6 -1.12 2.02 z M56.4215 7.619999999999999 l0 7.5 l1.08 0 c0.26 0 0.48 -0.22 0.48 -0.48 l0 -6.54 c0 -0.26 -0.22 -0.48 -0.48 -0.48 l-1.08 0 z M64.676 5.68 l0 14.24 l-1.9 0 l0 -14.24 l1.9 0 z M72.1105 12.46 l-2.76 0 l0 5.64 l2.78 0 l0 1.9 l-4.68 0 l0 -14.28 l4.68 0 l0 1.9 l-2.78 0 l0 2.94 l2.76 0 l0 1.9 z"></path></g><g id="SvgjsG4516" featureKey="inlineSymbolFeature-0" transform="matrix(0.5892982902067616,0,0,0.5892982902067616,217,-0.0002959976608498323)" fill="url(#SvgjsLinearGradient4525)"><path xmlns="http://www.w3.org/2000/svg" d="M43.463,100c-0.207,0-0.414-0.054-0.598-0.161l-42.266-24.4C0.229,75.226,0,74.83,0,74.403V25.599  c0-0.428,0.228-0.822,0.598-1.035L42.865,0.163c0.568-0.334,1.303-0.136,1.634,0.437c0.331,0.572,0.135,1.304-0.438,1.633  L2.394,26.291v47.42l41.069,23.712l41.069-23.712V25.599c0-0.661,0.535-1.196,1.196-1.196s1.196,0.535,1.196,1.196v48.805  c0,0.427-0.229,0.822-0.598,1.035l-42.266,24.4C43.876,99.946,43.67,100,43.463,100z"></path><path xmlns="http://www.w3.org/2000/svg" d="M16.785,34.626c-0.18,0-0.363-0.04-0.536-0.126L0.66,26.669c-0.59-0.297-0.829-1.017-0.532-1.608  c0.297-0.589,1.012-0.832,1.606-0.533l15.589,7.831c0.59,0.297,0.829,1.017,0.532,1.608C17.645,34.385,17.223,34.626,16.785,34.626z  "></path><path xmlns="http://www.w3.org/2000/svg" d="M43.463,100c-0.661,0-1.196-0.535-1.196-1.196V81.364c0-0.661,0.535-1.196,1.196-1.196s1.196,0.535,1.196,1.196v17.439  C44.659,99.465,44.124,100,43.463,100z"></path><path xmlns="http://www.w3.org/2000/svg" d="M43.462,81.577c-0.192,0-0.386-0.047-0.566-0.143L16.22,67.077c-0.388-0.208-0.629-0.614-0.629-1.054l-0.001-32.594  c0-0.661,0.535-1.196,1.197-1.196c0.661,0,1.196,0.535,1.196,1.196l0.001,31.878L44.03,79.326c0.582,0.313,0.8,1.04,0.487,1.622  C44.301,81.348,43.888,81.577,43.462,81.577z"></path><path xmlns="http://www.w3.org/2000/svg" d="M16.788,34.626c-0.41,0-0.81-0.21-1.033-0.591c-0.334-0.568-0.144-1.302,0.425-1.636l26.676-15.675  c0.569-0.336,1.304-0.147,1.638,0.425c0.335,0.568,0.145,1.301-0.425,1.636L17.394,34.46C17.203,34.572,16.994,34.626,16.788,34.626  z"></path><path xmlns="http://www.w3.org/2000/svg" d="M16.99,67.203c-0.41,0-0.81-0.21-1.033-0.591c-0.334-0.568-0.144-1.302,0.425-1.636L43.06,49.301  c0.569-0.336,1.304-0.147,1.639,0.425c0.334,0.568,0.144,1.301-0.426,1.636L17.596,67.037C17.405,67.149,17.196,67.203,16.99,67.203  z"></path><path xmlns="http://www.w3.org/2000/svg" d="M43.463,51.701c-0.661,0-1.196-0.535-1.196-1.197v-32.75c0-0.661,0.535-1.196,1.196-1.196s1.196,0.535,1.196,1.196v32.75  C44.659,51.166,44.124,51.701,43.463,51.701z"></path><path xmlns="http://www.w3.org/2000/svg" d="M43.463,100c-0.207,0-0.414-0.054-0.598-0.161l-42.266-24.4C0.229,75.226,0,74.83,0,74.403V25.599  c0-0.661,0.535-1.196,1.197-1.196c0.661,0,1.196,0.535,1.196,1.196v48.112l41.069,23.712l41.069-23.712v-47.42L42.865,2.233  c-0.573-0.33-0.769-1.061-0.438-1.633c0.329-0.573,1.062-0.771,1.634-0.437l42.266,24.401c0.369,0.213,0.598,0.607,0.598,1.035  v48.805c0,0.427-0.229,0.822-0.598,1.035l-42.266,24.4C43.876,99.946,43.67,100,43.463,100z"></path><path xmlns="http://www.w3.org/2000/svg" d="M70.143,34.626c-0.438,0-0.86-0.241-1.07-0.659c-0.295-0.591-0.057-1.311,0.532-1.608l15.587-7.831  c0.596-0.297,1.309-0.056,1.607,0.533c0.295,0.591,0.057,1.311-0.532,1.608L70.68,34.5C70.507,34.586,70.324,34.626,70.143,34.626z"></path><path xmlns="http://www.w3.org/2000/svg" d="M43.463,100c-0.661,0-1.196-0.535-1.196-1.196V80.381c0-0.662,0.535-1.197,1.196-1.197s1.196,0.535,1.196,1.197v18.423  C44.659,99.465,44.124,100,43.463,100z"></path><path xmlns="http://www.w3.org/2000/svg" d="M43.464,81.577c-0.426,0-0.839-0.229-1.055-0.629c-0.313-0.582-0.095-1.309,0.487-1.622l26.045-14.019l0.004-31.878  c0-0.661,0.538-1.196,1.197-1.196l0,0c0.661,0,1.196,0.535,1.196,1.196l-0.005,32.594c0,0.439-0.24,0.846-0.629,1.054L44.03,81.435  C43.85,81.53,43.656,81.577,43.464,81.577z"></path><path xmlns="http://www.w3.org/2000/svg" d="M70.138,34.626c-0.206,0-0.416-0.054-0.605-0.166L42.856,18.785c-0.569-0.334-0.759-1.068-0.425-1.636  c0.336-0.573,1.068-0.762,1.638-0.425l26.676,15.675c0.57,0.334,0.76,1.068,0.425,1.636C70.946,34.416,70.549,34.626,70.138,34.626z  "></path><path xmlns="http://www.w3.org/2000/svg" d="M69.937,67.203c-0.206,0-0.414-0.054-0.603-0.166L42.657,51.362c-0.569-0.335-0.759-1.068-0.425-1.636  c0.336-0.572,1.068-0.762,1.638-0.425l26.674,15.676c0.57,0.334,0.762,1.067,0.426,1.636C70.747,66.993,70.348,67.203,69.937,67.203  z"></path><path xmlns="http://www.w3.org/2000/svg" d="M43.463,51.701c-0.661,0-1.196-0.535-1.196-1.197v-32.75c0-0.661,0.535-1.196,1.196-1.196s1.196,0.535,1.196,1.196v32.75  C44.659,51.166,44.124,51.701,43.463,51.701z"></path></g><g id="SvgjsG4517" featureKey="nameRightFeature-0" transform="matrix(2.6652887019650087,0,0,2.6652887019650087,272.6092919460953,-4.339256063407213)" fill="url(#SvgjsLinearGradient4529)"><path d="M8.5145 20.12 c-1.52 0 -2.74 -1.24 -2.74 -2.74 l0 -2.18 l1.94 0 l0 2.18 c0 0.44 0.36 0.8 0.8 0.8 s0.78 -0.36 0.78 -0.8 l0 -1.9 l-3.52 -4.86 l0 -2.48 c0 -1.52 1.22 -2.76 2.74 -2.76 c1.5 0 2.72 1.24 2.72 2.76 l0 2.16 l-1.94 0 l0 -2.16 c0 -0.46 -0.34 -0.8 -0.78 -0.8 s-0.8 0.34 -0.8 0.8 l0 1.82 l3.52 4.86 l0 2.56 c0 1.5 -1.22 2.74 -2.72 2.74 z M20.309 5.68 l0 1.92 l-2.38 0 l0 12.42 l-1.92 0 l0 -12.42 l-2.62 0 l0 -1.92 l6.92 0 z M26.023500000000002 20.04 c-1.62 0 -2.94 -1.32 -2.94 -2.94 l0 -11.36 l1.9 0 l0 11.36 c0 0.58 0.46 1.06 1.04 1.06 s1.04 -0.48 1.04 -1.06 l0 -11.36 l1.9 0 l0 11.36 c0 1.62 -1.32 2.94 -2.94 2.94 z M34.238 20.02 l-2.5 0 l0 -14.26 l2.5 0 c1.7 0 3.06 1.38 3.06 3.08 l0 8.1 c0 0.82 -0.32 1.6 -0.9 2.18 s-1.34 0.9 -2.16 0.9 z M33.638 7.68 l0 10.42 l0.6 0 c0.3 0 0.6 -0.12 0.82 -0.34 s0.34 -0.5 0.34 -0.82 l0 -8.1 c0 -0.64 -0.52 -1.16 -1.16 -1.16 l-0.6 0 z M41.9725 5.68 l0 14.24 l-1.9 0 l0 -14.24 l1.9 0 z M47.447 20.02 c-1.5 0 -2.7 -1.22 -2.7 -2.7 l0 -8.98 c0 -1.48 1.2 -2.68 2.7 -2.68 c1.48 0 2.68 1.2 2.68 2.68 l0 8.98 c0 1.48 -1.2 2.7 -2.68 2.7 z M47.447 7.5600000000000005 c-0.44 0 -0.78 0.36 -0.78 0.78 l0 8.98 c0 0.44 0.34 0.78 0.78 0.78 c0.42 0 0.78 -0.34 0.78 -0.78 l0 -8.98 c0 -0.42 -0.36 -0.78 -0.78 -0.78 z"></path></g>
			</g>
		</svg>
	